
<svg xmlns="http://www.w3.org/2000/svg" version="1.0" width="241.000000pt" height="233.000000pt" viewBox="0 0 241.000000 233.000000" preserveAspectRatio="xMidYMid meet">
<metadata>
Created by potrace 1.10, written by Peter Selinger 2001-2011
</metadata>
<g transform="translate(0.000000,233.000000) scale(0.100000,-0.100000)"  fill="#C5C5C5" stroke="none">
<path d="M695 2285 c-14 -13 -25 -32 -25 -41 0 -22 56 -235 76 -290 27 -76 113 -83 138 -12 13 38 -59 314 -91 346 -29 29 -68 28 -98 -3z"/>
<path d="M1122 2303 c-21 -8 -39 -53 -77 -197 -31 -117 -35 -142 -25 -166 22 -53 103 -61 128 -13 15 28 82 287 82 316 0 44 -62 79 -108 60z"/>
<path d="M330 2073 c-15 -19 -19 -35 -15 -53 3 -14 59 -78 123 -142 100 -102 121 -118 149 -118 22 0 38 8 52 26 39 50 30 67 -97 195 -107 109 -120 119 -154 119 -28 0 -42 -6 -58 -27z"/>
<path d="M1369 1983 c-64 -65 -119 -126 -123 -136 -7 -22 17 -72 39 -81 49 -18 67 -7 187 112 98 98 118 124 118 148 0 41 -33 74 -73 74 -28 0 -48 -16 -148 -117z"/>
<path d="M136 1729 c-29 -23 -35 -72 -13 -103 16 -22 318 -108 345 -99 52 18 72 92 34 126 -15 14 -296 97 -328 97 -6 0 -23 -9 -38 -21z"/>
<path d="M1570 1711 c-74 -21 -145 -43 -157 -50 -48 -25 -42 -104 9 -125 28 -12 45 -10 173 24 78 21 151 43 164 49 47 26 47 92 -1 125 -29 21 -30 21 -188 -23z"/>
<path d="M1216 814 c144 -355 264 -648 267 -650 2 -2 46 100 97 228 51 128 95 235 97 238 2 2 131 -123 286 -278 l282 -282 48 48 c26 26 47 52 47 57 0 6 -124 134 -275 285 -151 151 -271 278 -267 281 4 4 103 46 221 93 118 48 220 90 226 94 11 6 -1263 532 -1286 532 -3 0 112 -291 257 -646z"/>
<path d="M359 1383 c-176 -45 -228 -63 -239 -83 -27 -50 3 -111 55 -112 28 0 174 35 278 68 65 21 87 71 52 121 -22 31 -44 33 -146 6z"/>
<path d="M431 1046 c-113 -115 -123 -127 -116 -153 10 -43 34 -63 73 -63 31 0 47 12 148 113 70 69 115 123 120 140 10 41 -22 81 -67 85 -32 3 -43 -6 -158 -122z"/>
<path d="M782 1033 c-21 -8 -39 -53 -76 -195 -23 -86 -34 -146 -30 -163 7 -30 39 -55 70 -55 47 0 64 30 105 180 21 80 39 155 39 168 0 46 -62 84 -108 65z"/>
</g>
</svg>