<svg xmlns="http://www.w3.org/2000/svg" version="1.0" width="300.000000pt" height="280.000000pt" viewBox="0 0 300.000000 280.000000" preserveAspectRatio="xMidYMid meet">
<metadata>
Created by potrace 1.10, written by Peter Selinger 2001-2011
</metadata>
<g transform="translate(0.000000,280.000000) scale(0.100000,-0.100000)" fill="#000000" stroke="none">
<path d="M1262 2744 c-180 -32 -375 -112 -532 -217 -41 -27 -122 -98 -180 -156 -196 -196 -302 -398 -360 -681 -29 -140 -25 -384 9 -530 114 -492 503 -874 1001 -985 100 -22 346 -31 452 -16 575 81 1021 518 1118 1096 16 98 14 302 -4 415 -89 552 -539 991 -1101 1075 -120 18 -303 18 -403 -1z m393 -634 c230 -38 397 -271 356 -499 -18 -101 -52 -164 -129 -240 -53 -54 -80 -72 -132 -91 -36 -13 -69 -27 -74 -31 -4 -4 48 -67 116 -141 171 -183 192 -207 200 -226 32 -78 -63 -148 -128 -94 -25 21 -372 392 -431 463 -49 57 -53 86 -19 126 23 27 30 28 133 34 120 6 162 21 222 81 130 127 95 343 -69 429 -43 23 -56 24 -267 27 l-223 3 0 -569 c0 -552 -1 -570 -20 -594 -41 -53 -121 -36 -140 29 -8 27 -10 220 -8 646 l3 609 28 24 c28 24 28 24 275 24 136 0 274 -5 307 -10z" fill="#424242"/>
</g>
</svg>